# xmcd CD database file
#
# Track frame offsets:
#	150
#	13660
#	28033
#	43353
#	56371
#	68610
#	81799
#	94671
#	107287
#	118771
#	134563
#	149336
#	162129
#	173555
#	189922
#	203759
#	217418
#	233177
#	246234
#	258925
#	270641
#
# Disc length: 3772 seconds
#
# Revision: 1
# Processed by: cddbd v1.5.1PL0 Copyright (c) Steve Scherf et al.
# Submitted via: CDex 1.51
#
DISCID=280eba15
DTITLE=Cliff Carlisle - A Country Legacy 1930-1938 #B
DYEAR=2004
DGENRE=Country
TTITLE0=Ash Can Blues
TTITLE1=Mouse's Ear Blues
TTITLE2=That Nasty Swing
TTITLE3=Sal's Got A Meatskin
TTITLE4=Raing Tail Tom
TTITLE5=Onion Eating Mama
TTITLE6=It Takes An Old Hen To Deliver The Goods
TTITLE7=Shanghai Rooster Yodel
TTITLE8=Chicken Roost Blues
TTITLE9=Wigglin' Mama
TTITLE10=Sugar Cane Mama
TTITLE11=Tom Cat Blues
TTITLE12=No Daddy Blues
TTITLE13=Hobo Blues
TTITLE14=Rooster Blues
TTITLE15=Guitar Blues
TTITLE16=It Ain't No Fault Of Mine
TTITLE17=Shine Your Light For Others
TTITLE18=Two Eyes In Tennessee
TTITLE19=Blind Child's Prayer, The
TTITLE20=When The Angels Carry Me Home
EXTD=YEAR: 2004
EXTT0=
EXTT1=
EXTT2=
EXTT3=
EXTT4=
EXTT5=
EXTT6=
EXTT7=
EXTT8=
EXTT9=
EXTT10=
EXTT11=
EXTT12=
EXTT13=
EXTT14=
EXTT15=
EXTT16=
EXTT17=
EXTT18=
EXTT19=
EXTT20=
PLAYORDER=
